<mxfile host="65bd71144e">
    <diagram id="sFObnIEY4BjlOa2cuqhq" name="第 2 页">
        <mxGraphModel dx="754" dy="539" grid="1" gridSize="10" guides="1" tooltips="1" connect="1" arrows="1" fold="1" page="1" pageScale="1" pageWidth="827" pageHeight="1169" math="0" shadow="0">
            <root>
                <mxCell id="AyxkLJLTORqofBkqzIQd-0"/>
                <mxCell id="AyxkLJLTORqofBkqzIQd-1" parent="AyxkLJLTORqofBkqzIQd-0"/>
                <mxCell id="AyxkLJLTORqofBkqzIQd-2" value="" style="rounded=0;whiteSpace=wrap;html=1;fontSize=14;strokeColor=none;fillColor=#FFFFFF;" vertex="1" parent="AyxkLJLTORqofBkqzIQd-1">
                    <mxGeometry x="100" y="100" width="640" height="320" as="geometry"/>
                </mxCell>
                <mxCell id="AyxkLJLTORqofBkqzIQd-3" value="&lt;font style=&quot;font-size: 14px&quot;&gt;Source port address&lt;br&gt;16 bits&lt;/font&gt;" style="rounded=0;whiteSpace=wrap;html=1;strokeColor=#000000;fillColor=#FFFF99;fontColor=#000000;" vertex="1" parent="AyxkLJLTORqofBkqzIQd-1">
                    <mxGeometry x="120" y="240" width="240" height="40" as="geometry"/>
                </mxCell>
                <mxCell id="AyxkLJLTORqofBkqzIQd-4" value="&lt;font style=&quot;font-size: 14px&quot;&gt;Destination port address&lt;br&gt;16 bits&lt;/font&gt;" style="rounded=0;whiteSpace=wrap;html=1;strokeColor=#000000;fillColor=#FFFF99;fontColor=#000000;" vertex="1" parent="AyxkLJLTORqofBkqzIQd-1">
                    <mxGeometry x="360" y="240" width="240" height="40" as="geometry"/>
                </mxCell>
                <mxCell id="AyxkLJLTORqofBkqzIQd-5" value="&lt;font color=&quot;#000000&quot;&gt;Data&lt;br&gt;(Padding must be added to make the data a multiple of 16 bits)&lt;br&gt;&lt;/font&gt;" style="rounded=0;whiteSpace=wrap;html=1;fontSize=14;strokeColor=#000000;fillColor=#FFFFFF;" vertex="1" parent="AyxkLJLTORqofBkqzIQd-1">
                    <mxGeometry x="120" y="320" width="480" height="80" as="geometry"/>
                </mxCell>
                <mxCell id="AyxkLJLTORqofBkqzIQd-6" value="&lt;font style=&quot;font-size: 14px&quot;&gt;UDP total length&lt;br&gt;16 bits&lt;/font&gt;" style="rounded=0;whiteSpace=wrap;html=1;strokeColor=#000000;fillColor=#FFFF99;fontColor=#000000;" vertex="1" parent="AyxkLJLTORqofBkqzIQd-1">
                    <mxGeometry x="120" y="280" width="240" height="40" as="geometry"/>
                </mxCell>
                <mxCell id="AyxkLJLTORqofBkqzIQd-7" value="&lt;font style=&quot;font-size: 14px&quot;&gt;Checksum&lt;br&gt;16 bits&lt;/font&gt;" style="rounded=0;whiteSpace=wrap;html=1;strokeColor=#000000;fillColor=#FFFF99;fontColor=#000000;" vertex="1" parent="AyxkLJLTORqofBkqzIQd-1">
                    <mxGeometry x="360" y="280" width="240" height="40" as="geometry"/>
                </mxCell>
                <mxCell id="AyxkLJLTORqofBkqzIQd-8" value="&lt;span style=&quot;font-size: 14px&quot;&gt;All 0s&lt;/span&gt;" style="rounded=0;whiteSpace=wrap;html=1;strokeColor=#000000;fillColor=#FFE6CC;fontColor=#000000;" vertex="1" parent="AyxkLJLTORqofBkqzIQd-1">
                    <mxGeometry x="120" y="200" width="120" height="40" as="geometry"/>
                </mxCell>
                <mxCell id="AyxkLJLTORqofBkqzIQd-9" value="&lt;font style=&quot;font-size: 14px&quot;&gt;16-bit UDP length&lt;br&gt;&lt;/font&gt;" style="rounded=0;whiteSpace=wrap;html=1;strokeColor=#000000;fillColor=#FFE6CC;fontColor=#000000;" vertex="1" parent="AyxkLJLTORqofBkqzIQd-1">
                    <mxGeometry x="360" y="200" width="240" height="40" as="geometry"/>
                </mxCell>
                <mxCell id="AyxkLJLTORqofBkqzIQd-10" value="&lt;span style=&quot;font-size: 14px&quot;&gt;8-bit Protocol&lt;br&gt;&lt;/span&gt;" style="rounded=0;whiteSpace=wrap;html=1;strokeColor=#000000;fillColor=#FFE6CC;fontColor=#000000;" vertex="1" parent="AyxkLJLTORqofBkqzIQd-1">
                    <mxGeometry x="240" y="200" width="120" height="40" as="geometry"/>
                </mxCell>
                <mxCell id="AyxkLJLTORqofBkqzIQd-11" value="&lt;font color=&quot;#000000&quot;&gt;32-bit Destination IP address&lt;/font&gt;" style="rounded=0;whiteSpace=wrap;html=1;fontSize=14;strokeColor=#000000;fillColor=#FFE6CC;" vertex="1" parent="AyxkLJLTORqofBkqzIQd-1">
                    <mxGeometry x="120" y="160" width="480" height="40" as="geometry"/>
                </mxCell>
                <mxCell id="AyxkLJLTORqofBkqzIQd-12" value="&lt;font color=&quot;#000000&quot;&gt;32-bit Source IP address&lt;/font&gt;" style="rounded=0;whiteSpace=wrap;html=1;fontSize=14;strokeColor=#000000;fillColor=#FFE6CC;" vertex="1" parent="AyxkLJLTORqofBkqzIQd-1">
                    <mxGeometry x="120" y="120" width="480" height="40" as="geometry"/>
                </mxCell>
                <mxCell id="AyxkLJLTORqofBkqzIQd-13" value="" style="shape=curlyBracket;whiteSpace=wrap;html=1;rounded=1;flipH=1;fontSize=14;fontColor=#000000;strokeColor=#000000;fillColor=#FFE6CC;" vertex="1" parent="AyxkLJLTORqofBkqzIQd-1">
                    <mxGeometry x="600" y="120" width="20" height="120" as="geometry"/>
                </mxCell>
                <mxCell id="AyxkLJLTORqofBkqzIQd-14" value="" style="shape=curlyBracket;whiteSpace=wrap;html=1;rounded=1;flipH=1;fontSize=14;fontColor=#000000;strokeColor=#000000;fillColor=#FFE6CC;" vertex="1" parent="AyxkLJLTORqofBkqzIQd-1">
                    <mxGeometry x="600" y="240" width="20" height="80" as="geometry"/>
                </mxCell>
                <mxCell id="AyxkLJLTORqofBkqzIQd-15" value="Pseudo header" style="text;html=1;strokeColor=none;fillColor=none;align=left;verticalAlign=middle;whiteSpace=wrap;rounded=0;fontSize=14;fontColor=#000000;" vertex="1" parent="AyxkLJLTORqofBkqzIQd-1">
                    <mxGeometry x="623" y="165" width="107" height="30" as="geometry"/>
                </mxCell>
                <mxCell id="AyxkLJLTORqofBkqzIQd-16" value="UDP header" style="text;html=1;strokeColor=none;fillColor=none;align=left;verticalAlign=middle;whiteSpace=wrap;rounded=0;fontSize=14;fontColor=#000000;" vertex="1" parent="AyxkLJLTORqofBkqzIQd-1">
                    <mxGeometry x="623" y="266" width="107" height="30" as="geometry"/>
                </mxCell>
            </root>
        </mxGraphModel>
    </diagram>
    <diagram id="f9SuJUQVJ-TRl1ZvUzdL" name="第 1 页">
        <mxGraphModel dx="754" dy="539" grid="1" gridSize="10" guides="1" tooltips="1" connect="1" arrows="1" fold="1" page="1" pageScale="1" pageWidth="827" pageHeight="1169" math="0" shadow="0">
            <root>
                <mxCell id="0"/>
                <mxCell id="1" parent="0"/>
                <mxCell id="7" value="" style="rounded=0;whiteSpace=wrap;html=1;fontSize=14;strokeColor=none;fillColor=#FFFFFF;" vertex="1" parent="1">
                    <mxGeometry x="100" y="100" width="520" height="200" as="geometry"/>
                </mxCell>
                <mxCell id="2" value="&lt;font style=&quot;font-size: 14px&quot;&gt;Source port address&lt;br&gt;16 bits&lt;/font&gt;" style="rounded=0;whiteSpace=wrap;html=1;strokeColor=#000000;fillColor=#FFFFFF;fontColor=#000000;" vertex="1" parent="1">
                    <mxGeometry x="120" y="120" width="240" height="40" as="geometry"/>
                </mxCell>
                <mxCell id="3" value="&lt;font style=&quot;font-size: 14px&quot;&gt;Destination port address&lt;br&gt;16 bits&lt;/font&gt;" style="rounded=0;whiteSpace=wrap;html=1;strokeColor=#000000;fillColor=#FFFFFF;fontColor=#000000;" vertex="1" parent="1">
                    <mxGeometry x="360" y="120" width="240" height="40" as="geometry"/>
                </mxCell>
                <mxCell id="4" value="&lt;font color=&quot;#000000&quot;&gt;Data&lt;/font&gt;" style="rounded=0;whiteSpace=wrap;html=1;fontSize=14;strokeColor=#000000;fillColor=#FFFFFF;" vertex="1" parent="1">
                    <mxGeometry x="120" y="200" width="480" height="80" as="geometry"/>
                </mxCell>
                <mxCell id="5" value="&lt;font style=&quot;font-size: 14px&quot;&gt;UDP total length&lt;br&gt;16 bits&lt;/font&gt;" style="rounded=0;whiteSpace=wrap;html=1;strokeColor=#000000;fillColor=#FFFFFF;fontColor=#000000;" vertex="1" parent="1">
                    <mxGeometry x="120" y="160" width="240" height="40" as="geometry"/>
                </mxCell>
                <mxCell id="6" value="&lt;font style=&quot;font-size: 14px&quot;&gt;Checksum&lt;br&gt;16 bits&lt;/font&gt;" style="rounded=0;whiteSpace=wrap;html=1;strokeColor=#000000;fillColor=#FFFFFF;fontColor=#000000;" vertex="1" parent="1">
                    <mxGeometry x="360" y="160" width="240" height="40" as="geometry"/>
                </mxCell>
            </root>
        </mxGraphModel>
    </diagram>
</mxfile>